<svg width="100" height="65" viewBox="0 0 100 65" fill="none" xmlns="http://www.w3.org/2000/svg">
<path d="M14.0288 15.0079V55.7205C14.0288 60.8515 9.86931 65 4.73834 65H3.93533e-06V50.9712V15.8701C3.93533e-06 15.8701 -6.49781e-06 15.8778 6.61111e-06 15.8554L4.89776e-05 15.8408L0.000200159 15.8116C0.000341975 15.791 0.000572538 15.7638 0.000926632 15.7385C0.00163393 15.688 0.0028358 15.6316 0.00481632 15.5632C0.00877112 15.4265 0.0158642 15.2548 0.0284599 15.0517C0.0535137 14.6478 0.101099 14.1038 0.192339 13.4735C0.369613 12.2487 0.73702 10.5011 1.54034 8.65108C2.34454 6.79903 3.69937 4.58805 5.983 2.83498C8.36166 1.00897 11.3248 0 14.6941 0C18.0634 0 21.0266 1.00897 23.4052 2.83498C25.6889 4.58805 27.0437 6.79903 27.8479 8.65108C28.6512 10.5011 29.0186 12.2487 29.1959 13.4735C29.2871 14.1038 29.3225 14.4332 29.3598 15.0517C29.3718 15.2513 29.3834 15.5632 29.3834 15.5632C29.3854 15.6316 29.3873 15.7385 29.3873 15.7385L29.388 15.8116L29.3882 49.7875C29.3677 50.2073 29.4078 50.9712 30.0026 50.9712C30.5973 50.9712 30.6374 50.2073 30.6169 49.7875L30.6169 15.8554L30.6169 15.8408L30.6171 15.8116L30.6173 15.7824L30.6178 15.7385C30.6185 15.688 30.6197 15.6316 30.6217 15.5632C30.6256 15.4265 30.6327 15.2548 30.6453 15.0517C30.6704 14.6478 30.718 14.1038 30.8092 13.4735C30.9865 12.2487 31.3539 10.5011 32.1572 8.65108C32.9614 6.79903 34.3162 4.58805 36.5999 2.83498C38.9785 1.00897 41.9417 0 45.311 0C48.6803 0 51.6434 1.00897 54.0221 2.83498C56.3057 4.58805 57.6606 6.79903 58.4648 8.65108C59.2681 10.5011 59.6355 12.2487 59.8128 13.4735C59.904 14.1038 59.9516 14.6478 59.9766 15.0517C59.9892 15.2548 59.9963 15.4265 60.0003 15.5632C60.0023 15.6316 60.0035 15.688 60.0042 15.7385L60.0047 15.7824L60.0049 15.8116L60.0051 50.5036L59.9766 64.5324H55.3288C50.1636 64.5324 45.9763 60.3451 45.9763 55.1799V15.0079C45.9566 14.6329 45.8089 14.0288 45.311 14.0288C44.8131 14.0288 44.6653 14.6329 44.6456 15.0079V48.5746L44.6458 48.5806C44.6464 48.6025 44.6469 48.6231 44.6474 48.6477C44.6502 48.7878 44.6516 48.9639 44.6488 49.1738C44.6433 49.5911 44.6213 50.1547 44.5585 50.8105C44.4366 52.0823 44.1431 53.9218 43.3937 55.8667C42.6432 57.8145 41.3213 60.1505 38.9788 62.0189C36.5363 63.967 33.4718 65 30.0026 65C26.5333 65 23.4688 63.967 21.0263 62.0189C18.6838 60.1505 17.3619 57.8145 16.6114 55.8667C15.862 53.9218 15.5685 52.0823 15.4466 50.8105C15.3838 50.1547 15.3618 49.5911 15.3563 49.1738C15.3535 48.9639 15.3549 48.7878 15.3577 48.6477L15.3595 48.5746V15.0079C15.3397 14.6329 15.192 14.0288 14.6941 14.0288C14.1962 14.0288 14.0485 14.6329 14.0288 15.0079Z" fill="#7A00A3"/>
<path d="M94.9148 33.0227C97.885 36.3668 99.6902 40.7695 99.6902 45.594C99.69 56.0534 91.2102 64.5325 80.7507 64.5325H61.8123V64.51C62.2698 64.0833 69.2852 57.5396 76.7566 50.5032H80.7507C83.4623 50.5032 85.6607 48.3056 85.6609 45.594C85.6609 44.5836 85.356 43.6442 84.8328 42.8635C89.643 38.2908 93.6147 34.4598 94.7566 33.2014C94.8101 33.1425 94.8621 33.0823 94.9148 33.0227Z" fill="#7A00A3"/>
<path fill-rule="evenodd" clip-rule="evenodd" d="M96.2749 28.9528C96.7684 28.1567 97.209 27.3139 97.5898 26.4271C101.717 16.8168 97.2727 5.68016 87.6625 1.55263C78.0522 -2.57491 66.9156 1.86971 62.788 11.48C62.4072 12.3667 62.0993 13.2665 61.8617 14.1726C61.3156 16.2556 61.3056 20.4399 61.3056 20.4399L61.2902 62.956L92.1127 33.6713C92.1127 33.6713 95.1403 30.7831 96.2749 28.9528ZM84.2858 22.76C84.4192 22.5466 84.5376 22.3204 84.639 22.0821C85.7382 19.4993 84.4304 16.4698 81.718 15.3154C79.0055 14.161 75.9155 15.3189 74.8163 17.9016C74.7149 18.1399 74.634 18.3821 74.5728 18.6262C74.432 19.1874 74.4534 20.319 74.4534 20.319C74.4534 20.319 74.7214 28.0009 74.6948 31.8175C77.4268 29.1523 83.1486 24.0196 83.1486 24.0196C83.1486 24.0196 83.9789 23.2505 84.2858 22.76Z" fill="#AB34D3"/>
</svg>
