<svg width="399" height="65" viewBox="0 0 399 65" fill="none" xmlns="http://www.w3.org/2000/svg">
<path d="M14.0286 15.0079V55.7205C14.0286 60.8515 9.8692 65 4.73828 65H3.93529e-06V50.9712V15.8701C3.93529e-06 15.8701 -6.49774e-06 15.8778 6.61103e-06 15.8554L4.8977e-05 15.8408L0.000200157 15.8116C0.000341971 15.791 0.000572531 15.7638 0.000926622 15.7385C0.00163391 15.688 0.00283577 15.6316 0.00481627 15.5632C0.00877102 15.4265 0.015864 15.2548 0.0284596 15.0517C0.0535131 14.6478 0.101098 14.1038 0.192337 13.4735C0.369608 12.2487 0.737012 10.5011 1.54033 8.65108C2.34451 6.79903 3.69933 4.58805 5.98294 2.83498C8.36157 1.00897 11.3247 0 14.6939 0C18.0632 0 21.0263 1.00897 23.405 2.83498C25.6886 4.58805 27.0434 6.79903 27.8476 8.65108C28.6509 10.5011 29.0183 12.2487 29.1956 13.4735C29.2868 14.1038 29.3222 14.4332 29.3594 15.0517C29.3715 15.2513 29.3831 15.5632 29.3831 15.5632C29.3851 15.6316 29.387 15.7385 29.387 15.7385L29.3877 15.8116L29.3879 49.7875C29.3674 50.2073 29.4075 50.9712 30.0022 50.9712C30.5969 50.9712 30.637 50.2073 30.6165 49.7875L30.6165 15.8554L30.6166 15.8408L30.6167 15.8116L30.617 15.7824L30.6174 15.7385C30.6182 15.688 30.6194 15.6316 30.6213 15.5632C30.6253 15.4265 30.6324 15.2548 30.645 15.0517C30.67 14.6478 30.7176 14.1038 30.8089 13.4735C30.9861 12.2487 31.3535 10.5011 32.1568 8.65108C32.961 6.79903 34.3159 4.58805 36.5995 2.83498C38.9781 1.00897 41.9412 0 45.3105 0C48.6797 0 51.6429 1.00897 54.0215 2.83498C56.3051 4.58805 57.6599 6.79903 58.4641 8.65108C59.2674 10.5011 59.6348 12.2487 59.8121 13.4735C59.9033 14.1038 59.9509 14.6478 59.976 15.0517C59.9886 15.2548 59.9957 15.4265 59.9996 15.5632C60.0016 15.6316 60.0028 15.688 60.0035 15.7385L60.004 15.7824L60.0042 15.8116L60.0044 50.5036L59.976 64.5324H55.3282C50.163 64.5324 45.9758 60.3451 45.9758 55.1799V15.0079C45.9561 14.6329 45.8084 14.0288 45.3105 14.0288C44.8126 14.0288 44.6648 14.6329 44.6451 15.0079V48.5746L44.6453 48.5806C44.6459 48.6025 44.6464 48.6231 44.6469 48.6477C44.6497 48.7878 44.6511 48.9639 44.6483 49.1738C44.6428 49.5911 44.6208 50.1547 44.558 50.8105C44.4361 52.0823 44.1426 53.9218 43.3932 55.8667C42.6427 57.8145 41.3209 60.1505 38.9783 62.0189C36.5359 63.967 33.4714 65 30.0022 65C26.533 65 23.4685 63.967 21.0261 62.0189C18.6836 60.1505 17.3617 57.8145 16.6112 55.8667C15.8619 53.9218 15.5683 52.0823 15.4465 50.8105C15.3836 50.1547 15.3616 49.5911 15.3561 49.1738C15.3534 48.9639 15.3547 48.7878 15.3575 48.6477L15.3593 48.5746V15.0079C15.3395 14.6329 15.1919 14.0288 14.6939 14.0288C14.196 14.0288 14.0484 14.6329 14.0286 15.0079Z" fill="#7A00A3"/>
<path d="M94.9132 33.0227C97.8835 36.3668 99.6886 40.7693 99.6886 45.594C99.6884 56.0535 91.2095 64.5325 80.7501 64.5325H61.8116V64.51C62.2688 64.0836 69.2838 57.5404 76.755 50.5042H80.7501C83.4617 50.5042 85.6601 48.3056 85.6602 45.594C85.6602 44.5838 85.3542 43.6451 84.8311 42.8645C89.6415 38.2916 93.6128 34.46 94.755 33.2014C94.8084 33.1425 94.8605 33.0823 94.9132 33.0227Z" fill="#7A00A3"/>
<path d="M80.2589 0.136597C90.7183 0.136597 99.1972 8.61561 99.1974 19.0751C99.1974 23.9727 97.3382 28.4367 94.2872 31.7987C90.8212 35.6179 61.3204 63.1298 61.3204 63.1298C61.3204 63.1298 61.3204 29.5347 61.3204 19.0751C61.3206 8.61566 69.7996 0.136684 80.2589 0.136597ZM80.2589 13.5614C77.5472 13.5615 75.3487 15.7647 75.3487 18.4823V29.9276C75.362 29.9152 82.9962 22.7808 83.8956 21.788C84.6865 20.9145 85.1689 19.7546 85.169 18.4823C85.169 15.7647 82.9706 13.5614 80.2589 13.5614Z" fill="#AB34D3"/>
<path d="M376.423 61.5267C374.31 61.5267 372.788 61.333 371.855 60.9457C370.939 60.5584 370.482 60.3648 370.482 60.3648V53.8689L373.096 54.0273C374.434 54.1329 375.481 54.0889 376.238 53.8953C377.013 53.7192 377.576 53.4728 377.928 53.1559C378.28 52.8566 378.509 52.5661 378.615 52.2845C378.72 52.0028 378.782 51.8268 378.799 51.7564L378.905 51.2282L368.316 25.5085H378.403L383.579 40.3489L388.939 25.5085H399L388.332 51.2282C387.153 54.0977 385.947 56.2718 384.714 57.7506C383.482 59.2293 382.179 60.224 380.806 60.7345C379.451 61.2626 377.99 61.5267 376.423 61.5267Z" fill="#7A00A3"/>
<path d="M350.822 53.3407C347.055 53.3407 344.159 52.038 342.134 49.4326C340.11 46.8095 339.098 43.3239 339.098 38.9757C339.098 36.1062 339.511 33.624 340.339 31.5291C341.184 29.4342 342.398 27.8234 343.983 26.6968C345.567 25.5525 347.477 24.9804 349.713 24.9804C350.399 24.9804 351.095 25.042 351.799 25.1652C352.503 25.2884 353.19 25.4909 353.859 25.7726C354.545 26.0366 355.179 26.4063 355.76 26.8816C356.341 27.3393 356.842 27.9203 357.265 28.6244V13.5729H367.563V52.8126H360.302L359.087 47.2144C358.77 48.1651 358.365 49.0189 357.872 49.7758C357.397 50.5328 356.816 51.1754 356.13 51.7035C355.461 52.2316 354.686 52.6365 353.806 52.9182C352.926 53.1999 351.931 53.3407 350.822 53.3407ZM353.251 46.1582C354.448 46.1582 355.417 45.6389 356.156 44.6002C356.895 43.544 357.265 41.6691 357.265 38.9757C357.265 37.3561 357.098 36.0534 356.763 35.0676C356.429 34.0641 355.962 33.3424 355.364 32.9023C354.765 32.4445 354.061 32.2157 353.251 32.2157C352.089 32.2157 351.095 32.7086 350.267 33.6944C349.44 34.6803 349.026 36.4407 349.026 38.9757C349.026 41.6691 349.44 43.544 350.267 44.6002C351.095 45.6389 352.089 46.1582 353.251 46.1582Z" fill="#7A00A3"/>
<path d="M320.494 53.3407C316.727 53.3407 313.831 52.038 311.807 49.4326C309.782 46.8095 308.77 43.3239 308.77 38.9757C308.77 36.1062 309.184 33.624 310.011 31.5291C310.856 29.4342 312.071 27.8234 313.655 26.6968C315.239 25.5525 317.15 24.9804 319.385 24.9804C320.072 24.9804 320.767 25.042 321.471 25.1652C322.175 25.2884 322.862 25.4909 323.531 25.7726C324.218 26.0366 324.851 26.4063 325.432 26.8816C326.013 27.3393 326.515 27.9203 326.937 28.6244V13.5729H337.236V52.8126H329.974L328.759 47.2144C328.442 48.1651 328.038 49.0189 327.545 49.7758C327.069 50.5328 326.488 51.1754 325.802 51.7035C325.133 52.2316 324.358 52.6365 323.478 52.9182C322.598 53.1999 321.603 53.3407 320.494 53.3407ZM322.924 46.1582C324.121 46.1582 325.089 45.6389 325.828 44.6002C326.568 43.544 326.937 41.6691 326.937 38.9757C326.937 37.3561 326.77 36.0534 326.436 35.0676C326.101 34.0641 325.635 33.3424 325.036 32.9023C324.438 32.4445 323.733 32.2157 322.924 32.2157C321.762 32.2157 320.767 32.7086 319.94 33.6944C319.112 34.6803 318.699 36.4407 318.699 38.9757C318.699 41.6691 319.112 43.544 319.94 44.6002C320.767 45.6389 321.762 46.1582 322.924 46.1582Z" fill="#7A00A3"/>
<path d="M290.391 53.3407C289.282 53.3407 288.129 53.1559 286.931 52.7862C285.734 52.3989 284.617 51.8356 283.578 51.0962C282.539 50.3568 281.694 49.459 281.043 48.4028C280.392 47.3289 280.066 46.1054 280.066 44.7323V25.5085H290.364V43.3064C290.364 44.0985 290.655 44.7675 291.236 45.3132C291.817 45.8414 292.626 46.1054 293.665 46.1054C294.704 46.1054 295.513 45.8414 296.094 45.3132C296.693 44.7675 296.992 44.0985 296.992 43.3064V25.5085H307.185V52.8126H299.58L298.365 47.2145C298.031 49.0277 297.397 50.3744 296.464 51.2546C295.531 52.1172 294.501 52.6806 293.375 52.9446C292.265 53.2087 291.271 53.3407 290.391 53.3407Z" fill="#7A00A3"/>
<path d="M246.543 52.8126V14.6292H261.805C267.139 14.6292 271.021 15.5006 273.45 17.2434C275.897 18.9686 277.121 21.4596 277.121 24.7163C277.121 26.4768 276.681 28.0347 275.801 29.3902C274.92 30.7458 273.301 32.0045 270.942 33.1663C272.614 33.6593 273.926 34.2842 274.876 35.0412C275.845 35.7982 276.549 36.608 276.989 37.4706C277.429 38.3332 277.711 39.1958 277.834 40.0584C277.957 40.9034 278.019 41.6868 278.019 42.4085C278.019 45.9646 276.839 48.5876 274.48 50.2776C272.139 51.9676 268.196 52.8126 262.65 52.8126H246.543ZM256.815 45.102H263.02C264.534 45.102 265.669 44.6971 266.426 43.8873C267.183 43.0599 267.562 42.1445 267.562 41.141C267.562 40.4369 267.386 39.8119 267.034 39.2662C266.682 38.7029 266.18 38.2627 265.529 37.9459C264.895 37.6114 264.147 37.4442 263.284 37.4442H256.815V45.102ZM256.815 29.5223H263.284C263.9 29.5223 264.446 29.4343 264.921 29.2582C265.414 29.0822 265.828 28.8445 266.162 28.5452C266.514 28.2284 266.779 27.8587 266.955 27.4362C267.148 26.9961 267.245 26.5296 267.245 26.0367C267.245 24.8924 266.823 23.9946 265.978 23.3432C265.15 22.6743 264.129 22.3398 262.914 22.3398H256.815V29.5223Z" fill="#7A00A3"/>
<path d="M242.19 25.5085V52.8126H232.42V25.5085H242.19ZM242.19 14.6292V23.2904H232.42V14.6292H242.19Z" fill="#AB34D3"/>
<path d="M202.189 52.8125V25.5085H212.355V29.2846C212.743 28.7036 213.235 28.1139 213.834 27.5153C214.433 26.9168 215.207 26.4151 216.158 26.0102C217.108 25.6053 218.297 25.4028 219.723 25.4028C221.325 25.4028 222.847 25.7109 224.291 26.3271C225.752 26.9432 226.94 27.929 227.856 29.2846C228.789 30.6401 229.255 32.4269 229.255 34.645V52.8125H218.957V36.0446C218.957 35.1467 218.622 34.4602 217.953 33.9849C217.284 33.5096 216.563 33.2719 215.788 33.2719C215.295 33.2719 214.785 33.3775 214.257 33.5888C213.746 33.8 213.315 34.1169 212.963 34.5394C212.628 34.9443 212.461 35.446 212.461 36.0446V52.8125H202.189Z" fill="#AB34D3"/>
<path d="M182.489 53.3407C181.38 53.3407 180.227 53.1559 179.03 52.7862C177.833 52.3989 176.715 51.8356 175.677 51.0962C174.638 50.3568 173.793 49.459 173.142 48.4028C172.49 47.3289 172.165 46.1054 172.165 44.7323V25.5085H182.463V43.3064C182.463 44.0985 182.753 44.7675 183.334 45.3132C183.915 45.8414 184.725 46.1054 185.764 46.1054C186.802 46.1054 187.612 45.8414 188.193 45.3132C188.792 44.7675 189.091 44.0985 189.091 43.3064V25.5085H199.284V52.8126H191.679L190.464 47.2145C190.129 49.0277 189.496 50.3744 188.563 51.2546C187.63 52.1172 186.6 52.6806 185.473 52.9446C184.364 53.2087 183.37 53.3407 182.489 53.3407Z" fill="#AB34D3"/>
<path d="M125.438 52.8126V14.6292H140.701L146.88 37.9195L153.112 14.6292H168.322V52.8126H158.023V25.1388L150.577 52.8126H143.183L135.71 25.1388V52.8126H125.438Z" fill="#AB34D3"/>
</svg>
